<svg width="494" height="494" viewBox="0 0 494 494" fill="none" xmlns="http://www.w3.org/2000/svg">
<path d="M167 7H191C193.122 7 195.157 7.84285 196.657 9.34315C198.157 10.8434 199 12.8783 199 15C199 19.2435 200.686 23.3131 203.686 26.3137C206.687 29.3143 210.757 31 215 31H279C283.243 31 287.313 29.3143 290.314 26.3137C293.314 23.3131 295 19.2435 295 15C295 12.8783 295.843 10.8434 297.343 9.34315C298.843 7.84285 300.878 7 303 7H327" stroke="black" stroke-width="14" stroke-linecap="round" stroke-linejoin="round"/>
<path d="M327 7H167C140.49 7 119 28.4903 119 55V439C119 465.51 140.49 487 167 487H327C353.51 487 375 465.51 375 439V55C375 28.4903 353.51 7 327 7Z" stroke="black" stroke-width="14" stroke-linecap="round" stroke-linejoin="round"/>
<path d="M7 167L7 327C7 353.51 28.4903 375 55 375H439C465.51 375 487 353.51 487 327V167C487 140.49 465.51 119 439 119L55 119C28.4903 119 7 140.49 7 167Z" stroke="black" stroke-width="14" stroke-linecap="round" stroke-linejoin="round"/>
<path d="M7 327V303C7 300.878 7.84285 298.843 9.34315 297.343C10.8434 295.843 12.8783 295 15 295C19.2435 295 23.3131 293.314 26.3137 290.314C29.3143 287.313 31 283.243 31 279V215C31 210.757 29.3143 206.687 26.3137 203.686C23.3131 200.686 19.2435 199 15 199C12.8783 199 10.8434 198.157 9.34315 196.657C7.84285 195.157 7 193.122 7 191V167" stroke="black" stroke-width="14" stroke-linecap="round" stroke-linejoin="round"/>
</svg>
